<svg width="198" height="192" viewBox="0 0 198 192" fill="none" xmlns="http://www.w3.org/2000/svg">
<g clipPath="url(#clip0_345_2)">
<path d="M130.67 39.4445C126.397 24.57 110.888 15.9798 96.0311 20.258C81.1738 24.5362 72.5937 40.0626 76.8668 54.9371C80.3324 67.0004 91.1877 74.9287 103.092 75.2133L108.032 77.2937L101.031 103.32L137.135 110.131L151.809 72.3185C151.809 72.3185 130.51 72.7179 125.072 65.3669C130.946 58.4533 133.363 48.8209 130.67 39.4445Z" fill="#ED9DA0"/>
<path d="M0.563599 169.822L56.7566 192L111.331 183.931L53.8334 167L0.563599 169.822Z" fill="#090814"/>
<path d="M53.5222 160.678L107.289 133.809L118.751 151.25L60.9377 175.473C59.6746 179.492 56.5296 183.243 52.0206 185.509C44.131 189.472 35.0793 187.386 31.803 180.849C28.5266 174.312 32.2663 165.8 40.1559 161.836C44.6649 159.571 49.5491 159.289 53.5222 160.678Z" fill="#ED9DA0"/>
<path d="M144.762 71.7542C144.762 71.7542 139.516 98.9949 121.196 98.4305C102.875 97.8661 106.258 84.8859 106.258 84.8859L88.9533 94.6211C88.9533 94.6211 81.4548 105.203 81.4548 118.465L76.0996 144.144L68.4896 152.045L91.0377 169.822L102.594 153.456L114.149 188.446L198 192L196.45 119.876C196.45 119.876 191.94 85.1681 172.774 78.1136C153.609 71.0591 144.762 71.7542 144.762 71.7542Z" fill="#ED1B24"/>
<path d="M98.1234 28.1559C98.1234 28.1559 87.1351 38.1093 75.8852 36.5377C64.6354 34.9661 62.5424 31.0371 62.5424 29.4656C62.5424 29.4656 62.5424 29.9894 65.6819 31.0371L66.99 19.7741C66.99 19.7741 68.5597 22.7283 74.3155 23.7395C74.3155 23.7395 69.3446 21.6602 74.3155 17.574C74.3155 17.574 76.9317 19.7741 79.2864 19.7741C79.2864 19.7741 92.3676 1.96285 118.269 13.2259V8.5459L120.623 14.5355L123.661 14.271L126.641 14.0117C126.641 14.0117 133.181 21.6076 132.658 26.8463C132.135 32.0849 142.059 58.3972 124.931 66.4574C124.931 66.4574 128.995 43.086 121.931 48.5865C114.867 54.087 110.42 45.4433 110.42 45.4433L98.1234 28.1559Z" fill="#090814"/>
<path opacity="0.5" d="M6.41184 143.336C4.82064 143.336 3.32139 142.733 2.16674 141.622C0.951256 140.452 0.28186 138.879 0.28186 137.191V56.28C0.28186 54.4697 1.07319 52.7604 2.45327 51.5904C3.83279 50.4205 5.64555 49.9198 7.43079 50.2187L70.513 60.7645C73.5055 61.2646 75.6618 63.8323 75.6403 66.8698L75.1542 134.747C75.1305 138.035 72.5413 140.713 69.2596 140.843L6.66314 143.331C6.57919 143.335 6.49551 143.336 6.41184 143.336Z" fill="white"/>
<path d="M6.41183 143.618C4.75017 143.618 3.17302 142.982 1.9713 141.825C0.700221 140.602 0 138.956 0 137.191V56.28C0 54.3863 0.82766 52.5986 2.27105 51.3751C3.71415 50.151 5.61142 49.6285 7.4773 49.9403L70.5595 60.4861C73.6894 61.0093 75.9447 63.6948 75.9221 66.8717L75.4361 134.749C75.4118 138.094 72.8499 140.835 69.5519 141.108L69.5522 141.114L6.67441 143.613C6.58661 143.617 6.49908 143.618 6.41183 143.618ZM6.41541 50.4164C5.04083 50.4164 3.70204 50.9011 2.63547 51.8058C1.3187 52.9218 0.563701 54.5526 0.563701 56.28V137.191C0.563701 138.801 1.20227 140.302 2.36215 141.418C3.51625 142.529 5.05377 143.114 6.65211 143.049L69.2483 140.561C72.3795 140.437 74.8498 137.882 74.8724 134.745L75.3584 66.8677C75.3788 63.9697 73.3216 61.5199 70.4665 61.0428L7.38427 50.497C7.0614 50.443 6.73744 50.4164 6.41541 50.4164Z" fill="#090814"/>
<path d="M28.2759 101.343H28.2608L9.33604 101.257C7.3741 101.248 5.77795 99.643 5.77795 97.6787V73.8779C5.77795 72.8638 6.21009 71.8935 6.96371 71.2158C7.71568 70.5391 8.72638 70.2131 9.73322 70.3196L28.6568 72.3522C30.4773 72.5477 31.85 74.0774 31.85 75.9103V97.7644C31.85 98.7233 31.4762 99.624 30.7972 100.301C30.1228 100.973 29.2274 101.343 28.2759 101.343ZM9.35531 70.864C8.6149 70.864 7.89458 71.137 7.34051 71.6356C6.70552 72.2064 6.34165 73.0238 6.34165 73.8779V97.6787C6.34165 99.3333 7.68622 100.685 9.33879 100.693L28.2621 100.779L28.2759 101.061V100.779C29.0774 100.779 29.8316 100.467 30.3997 99.9005C30.9714 99.3307 31.2863 98.572 31.2863 97.7644V75.9103C31.2863 74.3664 30.13 73.0779 28.5968 72.9133L9.67349 70.8808C9.56725 70.8697 9.461 70.864 9.35531 70.864Z" fill="#090814"/>
<path d="M65.4788 101.252H36.8328C34.8617 101.252 33.2584 99.6468 33.2584 97.6735V77.724C33.2584 76.728 33.6779 75.7693 34.4092 75.0938C35.1394 74.4189 36.1287 74.079 37.1201 74.157L65.7662 76.4699C67.6095 76.6187 69.0534 78.1855 69.0534 80.0369V97.6735C69.0534 99.6468 67.4499 101.252 65.4788 101.252ZM36.8361 74.7099C36.0822 74.7099 35.3481 74.9943 34.7913 75.5085C34.1755 76.0775 33.8221 76.8851 33.8221 77.724V97.6735C33.8221 99.3356 35.1727 100.688 36.8328 100.688H65.4788C67.1391 100.688 68.4897 99.3356 68.4897 97.6735V80.0369C68.4897 78.4774 67.2734 77.1578 65.7211 77.0324L37.075 74.7194C36.9951 74.7131 36.9153 74.7099 36.8361 74.7099Z" fill="#090814"/>
<path d="M37.4861 78.3955V80.375L52.4242 80.9351V79.2629L37.4861 78.3955Z" fill="#090814"/>
<path d="M37.4861 83.1553V85.1014L63.1345 86.0145V84.5849L37.4861 83.1553Z" fill="#090814"/>
<path d="M37.4861 86.7695V88.6461L51.5786 89.1185V87.5665L37.4861 86.7695Z" fill="#090814"/>
<path d="M9.12383 123.646C8.23919 123.646 7.40465 123.303 6.77434 122.68C6.13192 122.046 5.77795 121.198 5.77795 120.295V108.255C5.77795 106.407 7.27941 104.904 9.12493 104.904H24.1332C25.979 104.904 27.4805 106.407 27.4805 108.255V120.091C27.4805 121.914 25.9994 123.418 24.1786 123.442L9.12383 123.646ZM9.12493 105.468C7.59017 105.468 6.34166 106.718 6.34166 108.255V120.295C6.34166 121.046 6.6359 121.751 7.17014 122.278C7.69448 122.796 8.3881 123.081 9.12383 123.081L9.16292 123.081L24.1709 122.878C25.685 122.857 26.9168 121.607 26.9168 120.091V108.255C26.9168 106.718 25.668 105.468 24.1332 105.468L9.12493 105.468Z" fill="#090814"/>
<path d="M33.6594 122.864C32.7792 122.864 31.9477 122.524 31.3182 121.906C30.6708 121.271 30.3141 120.421 30.3141 119.513V108.255C30.3141 106.407 31.8155 104.904 33.6613 104.904H46.1175C47.9633 104.904 49.4648 106.407 49.4648 108.255V119.264C49.4648 121.075 47.9931 122.578 46.1842 122.614L33.6594 122.864ZM33.6613 105.468C32.1266 105.468 30.8778 106.718 30.8778 108.255V119.513C30.8778 120.268 31.1742 120.975 31.7129 121.503C32.2364 122.017 32.9275 122.299 33.6594 122.299L33.7169 122.299L46.1731 122.05C47.6774 122.02 48.9011 120.77 48.9011 119.264V108.255C48.9011 106.718 47.6523 105.468 46.1175 105.468H33.6613Z" fill="#090814"/>
<path d="M54.8332 122.004C53.956 122.004 53.1267 121.666 52.4978 121.051C51.8468 120.415 51.4882 119.563 51.4882 118.653V108.255C51.4882 106.407 52.9896 104.904 54.8354 104.904H65.5912C67.4204 104.904 68.9219 106.394 68.9381 108.225L69.0279 118.357C69.0438 120.176 67.5792 121.693 65.7629 121.737L54.8332 122.004ZM54.8354 105.468C53.3006 105.468 52.0519 106.718 52.0519 108.255V118.653C52.0519 119.41 52.3499 120.118 52.8914 120.647C53.4146 121.158 54.1041 121.44 54.8332 121.44L54.9045 121.439L65.7491 121.173C67.2594 121.136 68.4774 119.875 68.4642 118.362L68.3744 108.23C68.3609 106.707 67.1124 105.468 65.5911 105.468L54.8354 105.468Z" fill="#090814"/>
<path d="M9.72375 110.141V111.509H21.7913L22.0097 110.141H9.72375Z" fill="#090814"/>
<path d="M22.4688 97.0545L15.9012 88.8354L8.79577 95.9491L8.39722 95.5501L15.948 87.9905L22.9092 96.7021L22.4688 97.0545Z" fill="#090814"/>
<path d="M26.8217 96.5013L22.6311 90.0848L19.4933 92.8572L19.1201 92.4339L22.7467 89.2302L27.2935 96.1924L26.8217 96.5013Z" fill="#090814"/>
<path opacity="0.5" d="M150.818 42.5928C149.4 42.5928 148.019 42.0972 146.912 41.1689C145.525 40.0069 144.73 38.3022 144.73 36.492V15.0739C144.73 12.2696 146.628 9.83609 149.346 9.15599L184.062 0.466701C185.876 0.0122927 187.769 0.406627 189.252 1.54747C190.735 2.68845 191.603 4.41681 191.632 6.28928L192.004 30.1279C192.051 33.1347 189.939 35.7002 186.982 36.2283L151.894 42.4971C151.535 42.5612 151.175 42.5928 150.818 42.5928Z" fill="white"/>
<path d="M150.818 42.8749C149.328 42.8749 147.876 42.3458 146.731 41.3852C145.28 40.1695 144.448 38.386 144.448 36.4919V15.0738C144.448 12.1398 146.434 9.59366 149.277 8.88215L183.994 0.192859C185.892 -0.282081 187.871 0.129617 189.423 1.32364C190.975 2.51753 191.883 4.3258 191.914 6.2848L192.286 30.1235C192.335 33.2692 190.125 35.9535 187.032 36.506L151.943 42.7748C151.572 42.8413 151.193 42.8749 150.818 42.8749ZM185.551 0.564323C185.078 0.564323 184.601 0.622331 184.13 0.740409L149.414 9.4297C146.822 10.0782 145.012 12.3992 145.012 15.0738V36.4919C145.012 38.2185 145.77 39.8443 147.092 40.9525C148.4 42.0491 150.164 42.5198 151.844 42.2193L186.933 35.9505C189.753 35.4467 191.767 32.9998 191.722 30.1323L191.35 6.29362C191.322 4.50781 190.495 2.85938 189.08 1.77116C188.05 0.979048 186.814 0.564323 185.551 0.564323Z" fill="#090814"/>
<path d="M155.582 15.4696V17.7104L178.13 12.93L178.975 10.3904L155.582 15.4696Z" fill="#090814"/>
<path d="M155.582 20.8309V23.0717L178.13 18.2913L178.975 15.7517L155.582 20.8309Z" fill="#090814"/>
<path d="M155.582 26.1923V28.433L178.13 23.6527L178.975 21.113L155.582 26.1923Z" fill="#090814"/>
<path d="M155.582 31.5538V33.7946L178.13 29.0142L178.975 26.4746L155.582 31.5538Z" fill="#090814"/>
<path d="M96.6461 167.377L156.726 166.125L159.632 186.799L97.0254 183.926C94.1662 187.018 89.7202 189.062 84.6767 189.177C75.8518 189.38 68.5621 183.617 68.3945 176.305C68.227 168.993 75.245 162.902 84.0698 162.699C89.1133 162.583 93.6483 164.421 96.6461 167.377Z" fill="#ED9DA0"/>
<path d="M156.427 121.569C156.427 121.569 154.454 133.985 160.373 138.218C160.373 138.218 158.4 153.455 163.191 158.252C163.191 158.252 154.386 158.609 156.111 163.228C156.111 163.228 143.18 161.074 144.871 166.436C144.871 166.436 156.838 180.815 153.955 190.133L193.068 188.163L197.433 165.616" fill="#ED1B24"/>
</g>
<defs>
<clipPath id="clip0_345_2">
<rect width="198" height="192" fill="white"/>
</clipPath>
</defs>
</svg>
